<?xml version="1.0" encoding="UTF-8"?>
<svg id="Capa_2" data-name="Capa 2" xmlns="http://www.w3.org/2000/svg" viewBox="0 0 129.54 40">
  <defs>
    <style>
      .cls-1 {
        fill: none;
      }

      .cls-2 {
        fill: #fff;
      }
    </style>
  </defs>
  <g id="Capa_1-2" data-name="Capa 1">
    <g>
      <g>
        <path class="cls-2" d="M40,20c0,10.29-7.77,18.77-17.77,19.88.03-.03,2.5-2.83,4.1-6.53,1.61-3.72,2.1-6.42,2.1-10.52,0-.81-.1-1.64-.25-2.47-.01-.28-.05-.56-.1-.84-.29-2.01-1-3.88-2.05-5.52,0,0,0,0,0,0-.31-.54-.63-.96-.99-1.36-.32-.4-.67-.78-1.04-1.14,0,0,0,0,0,0-1.01-1.07-1.9-1.71-2.79-2.15-2.18-1.23-4.51-1.9-7.1-1.9C6.56,7.45.4,13.38.02,20.83c-.01-.28-.02-.55-.02-.83C0,8.96,8.96,0,20,0s20,8.96,20,20ZM22.86,32.65s0,0,0,0c-2.4,1.9-5.44,3.03-8.74,3.03-5.01,0-9.4-2.61-11.91-6.54,3.32,6.45,10.04,10.86,17.8,10.86.76,0,1.5-.04,2.24-.12.02-.02.28-.38.88-2.92.62-2.64.08-3.4-.25-4.32Z"/>
        <path class="cls-1" d="M0,21.56c0,2.79.81,5.39,2.21,7.58C.92,26.63.14,23.82.02,20.83c-.01.24-.02.48-.02.73Z"/>
        <path class="cls-1" d="M28.09,19.52c-.29-2.01-1-3.88-2.05-5.52.8,1.42,1.32,3.04,1.87,4.8.07.24.13.48.18.72Z"/>
        <path class="cls-1" d="M24.02,11.5c.37.42.72.77,1.04,1.14-.32-.4-.67-.78-1.04-1.14Z"/>
        <polygon class="cls-1" points="22.24 39.88 22.24 39.88 22.24 39.88 22.24 39.88"/>
        <path class="cls-1" d="M26.04,14c-.31-.54-.63-.96-.99-1.36.36.43.69.89.99,1.37,0,0,0,0,0,0Z"/>
      </g>
      <g>
        <path class="cls-2" d="M46.68,10.98h17.25c.47,0,.71.17.71.52v.83c0,1.23-.71,2.16-2.14,2.78-.07.04-.17.06-.32.06h-17.38c-.43,0-.65-.17-.65-.52v-.71c0-1.28.43-2.14,1.29-2.58.44-.26.85-.39,1.23-.39ZM47.39,18.54h1.16c.47,0,.71.26.71.77v4.65c.08.47.32.71.72.71h10.91c2.13,0,3.38.92,3.74,2.77v1.04c0,.39-.32.58-.97.58h-15.95c-1.69,0-2.79-.52-3.3-1.56-.17-.46-.25-.91-.25-1.35v-4.45c0-2.11,1.07-3.16,3.23-3.16Z"/>
        <path class="cls-2" d="M70.29,10.94h3.76c.47,0,.71.17.71.52v17.02c0,.39-.32.58-.97.58h-3.17c-.69,0-1.04-.21-1.04-.65V11.52c0-.39.24-.58.72-.58Z"/>
        <path class="cls-2" d="M83.39,10.98h15.75c1.44,0,2.44.56,3,1.69.17.55.25.96.25,1.23v5.54c0,1.36-.67,2.31-2.01,2.86-.52.08-.94.13-1.24.13h-12.68c-.61,0-.91.43-.91,1.3v4.82c0,.35-.17.52-.52.52h-4.43c-.35,0-.52-.19-.52-.58v-7.42c-.27-2.16.92-3.17,3.58-3.05h12.5c.39,0,.6-.26.65-.78v-1.18c0-.56-.35-.85-1.04-.85h-15.1c-.39-.05-.58-.24-.58-.58v-.52c0-1.39.61-2.34,1.82-2.86.7-.18,1.2-.27,1.49-.27Z"/>
        <path class="cls-2" d="M110.55,10.98h15.75c1.44,0,2.44.56,3,1.69.17.55.25.96.25,1.23v5.54c0,1.36-.67,2.31-2.01,2.86-.52.08-.94.13-1.24.13h-12.68c-.61,0-.91.43-.91,1.3v4.82c0,.35-.17.52-.52.52h-4.43c-.35,0-.52-.19-.52-.58v-7.42c-.27-2.16.92-3.17,3.58-3.05h12.5c.39,0,.6-.26.65-.78v-1.18c0-.56-.35-.85-1.04-.85h-15.1c-.39-.05-.58-.24-.58-.58v-.52c0-1.39.61-2.34,1.82-2.86.7-.18,1.2-.27,1.49-.27Z"/>
      </g>
    </g>
  </g>
</svg>