<?xml version="1.0" encoding="UTF-8"?>
<svg id="Capa_2" data-name="Capa 2" xmlns="http://www.w3.org/2000/svg" viewBox="0 0 98.62 49.57">
  <defs>
    <style>
      .cls-1 {
        fill-rule: evenodd;
      }

      .cls-1, .cls-2 {
        fill: #fff;
      }
    </style>
  </defs>
  <g id="Capa_1-2" data-name="Capa 1">
    <g>
      <path class="cls-1" d="M98.62,27.85v5.14c0,5.44-1.34,9.56-4,12.37-2.66,2.81-6.75,4.21-12.26,4.21s-9.73-1.4-12.32-4.21c-2.56-2.81-3.83-6.93-3.83-12.37V12.9c2.29.63,4.64,1.39,6.98,2.23.56.2,1.13.41,1.71.63l.38.14v17.47c0,2.85.53,4.99,1.62,6.44,1.08,1.4,2.9,2.11,5.46,2.11s4.39-.7,5.51-2.11c1.11-1.44,1.67-3.59,1.67-6.44v-10.9c2.86,1.53,5.72,3.22,8.49,5.01l.59.38Z"/>
      <path class="cls-2" d="M66.21,10.11h9.08v4.63c-.58-.22-1.16-.43-1.72-.63-2.61-.93-5.07-1.7-7.35-2.33v-1.66ZM98.62,26.56V10.11h-9.08v11.11c2.95,1.58,5.99,3.35,9.08,5.34Z"/>
      <path class="cls-1" d="M52.41,31.46v-11.02c0-1.01.04-1.93.11-2.76.01-.13.02-.25.03-.37-.03,0-.06,0-.09,0-.65-.04-1.28-.05-1.89-.05-1.76,0-3.19.23-4.27.7-1.04.47-1.85,1.17-2.43,2.11-.54.94-.94,2.14-1.19,3.62l-1.28,7.78h11ZM61.47,10.54c-1.36-.29-2.85-.51-4.47-.64-1.69-.18-3.28-.27-4.75-.27-2.63,0-4.99.22-7.08.65-2.09.4-3.91,1.12-5.46,2.16-1.51,1.04-2.77,2.45-3.78,4.21-.97,1.76-1.69,4.02-2.16,6.75l-4.32,25.55h9.08l1.67-10.16h12.21v10.16h9.08l-.02-38.42Z"/>
      <polygon class="cls-2" points=".31 10.07 32.29 10.07 32.29 17.95 20.84 17.95 20.84 48.96 11.76 48.96 11.76 17.95 .31 17.95 .31 10.07"/>
      <path class="cls-1" d="M.4,1.53c-.27.48-.4,1.03-.4,1.66s.12,1.18.37,1.65c.24.47.61.84,1.09,1.1.48.26,1.09.39,1.82.39.39,0,.74-.03,1.06-.09.32-.06.6-.14.82-.25v-2.9h-1.39v1.93s-.02,0-.03.01c-.12.03-.26.05-.43.05-.36,0-.67-.07-.93-.22-.26-.15-.46-.36-.61-.64-.14-.28-.21-.62-.21-1.01,0-.64.17-1.12.5-1.45.34-.33.85-.49,1.53-.49.26,0,.51.03.73.08.23.05.4.1.53.17h.09V.22c-.13-.06-.32-.11-.57-.15C4.11.02,3.83,0,3.52,0,2.76,0,2.12.14,1.59.41c-.52.27-.92.64-1.19,1.13ZM8.33.1h-1.52v6.14h1.52v-1.46h.78c.07,0,.14,0,.21,0l1.01,1.46h1.67v-.09l-1.37-1.79c.13-.08.25-.17.36-.27.26-.22.46-.49.61-.8.15-.32.22-.68.22-1.07,0-.43-.09-.81-.28-1.13-.18-.32-.46-.56-.83-.73-.36-.18-.82-.26-1.38-.26h-.99ZM9.07,3.55h-.74V1.36h.98c.3,0,.53.07.71.22.18.15.27.38.27.69,0,.22-.04.43-.13.62-.09.19-.22.35-.4.48-.18.12-.41.18-.69.18ZM14.76.1h-1.51v3.59c0,.87.2,1.53.61,1.98.41.45,1.07.67,1.97.67s1.55-.22,1.97-.67c.43-.45.64-1.11.64-1.98V.1h-1.51v3.66c0,.43-.09.75-.26.97-.16.22-.45.32-.84.32s-.67-.11-.84-.32c-.16-.22-.24-.55-.24-.97V.1ZM21.65.1h-1.52v6.14h1.52v-1.57h.75c.43,0,.81-.06,1.13-.19.33-.13.61-.31.83-.54.22-.23.39-.49.49-.8.11-.31.17-.63.17-.98,0-.65-.2-1.15-.61-1.52s-1.01-.55-1.81-.55h-.95ZM22.34,3.45h-.7V1.36h.97c.27,0,.48.07.65.2.17.13.26.34.26.64,0,.23-.04.43-.12.62-.07.19-.2.34-.38.45-.17.11-.4.17-.68.17ZM27.75,3.17c0,.37.06.7.17.99.12.28.3.51.53.66.24.16.53.24.89.24s.64-.08.88-.24c.23-.16.41-.38.52-.66.12-.29.18-.62.18-.99s-.06-.7-.18-.98c-.11-.29-.29-.51-.52-.67-.23-.16-.53-.24-.88-.24s-.65.08-.89.24c-.23.16-.41.38-.53.67-.11.28-.17.61-.17.98ZM26.21,3.17c0-.63.12-1.18.37-1.65s.6-.85,1.07-1.12,1.03-.4,1.7-.4,1.22.13,1.69.4c.47.27.83.64,1.07,1.12s.37,1.03.37,1.65-.12,1.18-.37,1.65c-.24.48-.6.85-1.07,1.12-.47.27-1.03.4-1.69.4s-1.23-.13-1.7-.39c-.47-.27-.82-.64-1.07-1.12-.24-.48-.37-1.03-.37-1.66Z"/>
    </g>
  </g>
</svg>