<?xml version="1.0" encoding="UTF-8"?>
<svg id="Capa_2" data-name="Capa 2" xmlns="http://www.w3.org/2000/svg" viewBox="0 0 775.38 310.41">
  <defs>
    <style>
      .cls-1 {
        fill: #fff;
      }
    </style>
  </defs>
  <g id="Capa_1-2" data-name="Capa 1">
    <g>
      <path class="cls-1" d="M137.77,233.72v7.3l157.36,49.46-70.38,19.92-153.38-81C30.54,207.82,0,170.64,0,121.17,0,53.12,57.77,3.32,119.85,3.32s119.52,49.8,119.52,117.85c0,60.09-47.14,105.24-101.59,112.54ZM119.85,223.43c37.18,0,73.7-42.16,73.7-102.25S157.03,19.25,119.85,19.25,46.15,61.08,46.15,121.17s36.52,102.25,73.7,102.25Z"/>
      <path class="cls-1" d="M276.18,122.83l-25.9-20.25,65.07-24.24v142.42h20.25v14.94h-80.01v-14.94h20.58v-97.94ZM269.54,23.9c0-13.28,10.62-23.9,24.23-23.9s23.9,10.62,23.9,23.9-10.62,23.9-23.9,23.9-24.23-10.96-24.23-23.9Z"/>
      <path class="cls-1" d="M338.89,102.58l65.07-24.24v28.88h5.98c11.95-11.95,26.89-25.56,49.8-25.56,20.25,0,33.2,11.62,39.51,26.56h4.98c12.28-11.95,29.55-26.56,52.45-26.56,26.89,0,41.17,20.25,41.17,48.8v90.3h20.58v14.94h-80.01v-14.94h20.25v-79.68c0-21.25-10.62-33.2-30.88-33.2-10.29,0-19.92,5.98-26.89,11.62v101.25h19.92v14.94h-79.34v-14.94h20.25v-79.68c0-21.25-10.96-33.2-30.88-33.2-10.29,0-19.92,5.98-26.89,11.62v101.25h19.92v14.94h-79.68v-14.94h20.58v-97.94l-25.9-20.25Z"/>
      <path class="cls-1" d="M667.48,103.25v34.19h-41.17c11.29-30.88,48.14-55.77,80.67-55.77,21.91,0,38.18,15.6,38.18,42.16v70.71c0,11.62,5.98,17.26,14.61,17.26,5.64,0,11.29-2.32,15.6-7.64,0,20.25-16.6,34.19-35.85,34.19-16.6,0-27.22-9.96-31.87-22.57h-4.98c-8.3,9.63-22.24,22.24-41.5,22.24-17.26,0-33.2-12.28-33.2-31.54,0-22.24,19.92-34.19,42.83-43.16l36.52-14.61v-16.6c0-19.59-8.96-35.19-39.84-28.88ZM692.71,166.99c-17.59,7.64-27.55,14.28-27.55,28.88,0,11.62,8.96,17.93,19.92,17.93,8.63,0,15.94-3.32,22.24-8.96v-44.15l-14.61,6.31Z"/>
    </g>
  </g>
</svg>